<mxfile host="app.diagrams.net" modified="2022-05-09T10:33:37.636Z" agent="5.0 (Windows NT 10.0; Win64; x64) AppleWebKit/537.36 (KHTML, like Gecko) Chrome/101.0.4951.54 Safari/537.36" etag="Ra4W9HLy6NsWluCKbUmd" version="18.0.2" type="github">
  <diagram id="R2lEEEUBdFMjLlhIrx00" name="Page-1">
    <mxGraphModel dx="2062" dy="1154" grid="1" gridSize="10" guides="1" tooltips="1" connect="1" arrows="1" fold="1" page="1" pageScale="1" pageWidth="850" pageHeight="1100" math="0" shadow="0" extFonts="Permanent Marker^https://fonts.googleapis.com/css?family=Permanent+Marker">
      <root>
        <mxCell id="0" />
        <mxCell id="1" parent="0" />
        <mxCell id="3MZKQRo2MggwTNiXM9mT-11" value="模型资源包" style="shape=folder;fontStyle=1;tabWidth=110;tabHeight=30;tabPosition=left;html=1;boundedLbl=1;labelInHeader=1;container=1;collapsible=0;recursiveResize=0;" vertex="1" parent="1">
          <mxGeometry x="70" y="430" width="530" height="260" as="geometry" />
        </mxCell>
        <mxCell id="3MZKQRo2MggwTNiXM9mT-24" value="" style="rounded=0;whiteSpace=wrap;html=1;" vertex="1" parent="3MZKQRo2MggwTNiXM9mT-11">
          <mxGeometry x="10" y="40" width="510" height="60" as="geometry" />
        </mxCell>
        <mxCell id="3MZKQRo2MggwTNiXM9mT-12" value="Hero" style="html=1;" vertex="1" parent="3MZKQRo2MggwTNiXM9mT-11">
          <mxGeometry width="110" height="30" relative="1" as="geometry">
            <mxPoint x="20" y="50" as="offset" />
          </mxGeometry>
        </mxCell>
        <mxCell id="3MZKQRo2MggwTNiXM9mT-13" value="NPC" style="html=1;" vertex="1" parent="3MZKQRo2MggwTNiXM9mT-11">
          <mxGeometry width="110" height="30" relative="1" as="geometry">
            <mxPoint x="150" y="50" as="offset" />
          </mxGeometry>
        </mxCell>
        <mxCell id="3MZKQRo2MggwTNiXM9mT-14" value="BOSS" style="html=1;" vertex="1" parent="3MZKQRo2MggwTNiXM9mT-11">
          <mxGeometry width="110" height="30" relative="1" as="geometry">
            <mxPoint x="280" y="50" as="offset" />
          </mxGeometry>
        </mxCell>
        <mxCell id="3MZKQRo2MggwTNiXM9mT-15" value="Monster" style="html=1;" vertex="1" parent="3MZKQRo2MggwTNiXM9mT-11">
          <mxGeometry width="110" height="30" relative="1" as="geometry">
            <mxPoint x="400" y="50" as="offset" />
          </mxGeometry>
        </mxCell>
        <mxCell id="3MZKQRo2MggwTNiXM9mT-20" value="" style="rounded=0;whiteSpace=wrap;html=1;" vertex="1" parent="3MZKQRo2MggwTNiXM9mT-11">
          <mxGeometry x="40" y="160" width="420" height="60" as="geometry" />
        </mxCell>
        <mxCell id="3MZKQRo2MggwTNiXM9mT-16" value="model_share" style="html=1;" vertex="1" parent="3MZKQRo2MggwTNiXM9mT-11">
          <mxGeometry width="110" height="30" relative="1" as="geometry">
            <mxPoint x="60" y="180" as="offset" />
          </mxGeometry>
        </mxCell>
        <mxCell id="3MZKQRo2MggwTNiXM9mT-17" value="model_vfx_share" style="html=1;" vertex="1" parent="3MZKQRo2MggwTNiXM9mT-11">
          <mxGeometry width="110" height="30" relative="1" as="geometry">
            <mxPoint x="190" y="180" as="offset" />
          </mxGeometry>
        </mxCell>
        <mxCell id="3MZKQRo2MggwTNiXM9mT-18" value="model_other_share" style="html=1;" vertex="1" parent="3MZKQRo2MggwTNiXM9mT-11">
          <mxGeometry width="110" height="30" relative="1" as="geometry">
            <mxPoint x="330" y="180" as="offset" />
          </mxGeometry>
        </mxCell>
        <mxCell id="3MZKQRo2MggwTNiXM9mT-26" value="" style="shape=flexArrow;endArrow=classic;html=1;rounded=0;width=10;endSize=8.27;endWidth=15;" edge="1" parent="3MZKQRo2MggwTNiXM9mT-11" target="3MZKQRo2MggwTNiXM9mT-20">
          <mxGeometry width="50" height="50" relative="1" as="geometry">
            <mxPoint x="240" y="100" as="sourcePoint" />
            <mxPoint x="290" y="50" as="targetPoint" />
          </mxGeometry>
        </mxCell>
        <mxCell id="3MZKQRo2MggwTNiXM9mT-39" style="edgeStyle=orthogonalEdgeStyle;rounded=0;orthogonalLoop=1;jettySize=auto;html=1;entryX=0.498;entryY=0.104;entryDx=0;entryDy=0;entryPerimeter=0;" edge="1" parent="1" source="3MZKQRo2MggwTNiXM9mT-27" target="3MZKQRo2MggwTNiXM9mT-11">
          <mxGeometry relative="1" as="geometry">
            <Array as="points">
              <mxPoint x="335" y="380" />
              <mxPoint x="334" y="380" />
            </Array>
          </mxGeometry>
        </mxCell>
        <mxCell id="3MZKQRo2MggwTNiXM9mT-27" value="特效资源包" style="shape=folder;fontStyle=1;tabWidth=110;tabHeight=30;tabPosition=left;html=1;boundedLbl=1;labelInHeader=1;container=1;collapsible=0;recursiveResize=0;" vertex="1" parent="1">
          <mxGeometry x="70" y="70" width="530" height="240" as="geometry" />
        </mxCell>
        <mxCell id="3MZKQRo2MggwTNiXM9mT-28" value="" style="rounded=0;whiteSpace=wrap;html=1;" vertex="1" parent="3MZKQRo2MggwTNiXM9mT-27">
          <mxGeometry x="10" y="40" width="510" height="60" as="geometry" />
        </mxCell>
        <mxCell id="3MZKQRo2MggwTNiXM9mT-29" value="vfx_model" style="html=1;" vertex="1" parent="3MZKQRo2MggwTNiXM9mT-27">
          <mxGeometry width="110" height="30" relative="1" as="geometry">
            <mxPoint x="20" y="50" as="offset" />
          </mxGeometry>
        </mxCell>
        <mxCell id="3MZKQRo2MggwTNiXM9mT-30" value="vfx_ui" style="html=1;" vertex="1" parent="3MZKQRo2MggwTNiXM9mT-27">
          <mxGeometry width="110" height="30" relative="1" as="geometry">
            <mxPoint x="150" y="50" as="offset" />
          </mxGeometry>
        </mxCell>
        <mxCell id="3MZKQRo2MggwTNiXM9mT-31" value="vfx_other" style="html=1;" vertex="1" parent="3MZKQRo2MggwTNiXM9mT-27">
          <mxGeometry width="110" height="30" relative="1" as="geometry">
            <mxPoint x="280" y="50" as="offset" />
          </mxGeometry>
        </mxCell>
        <mxCell id="3MZKQRo2MggwTNiXM9mT-35" value="vfx_share" style="html=1;" vertex="1" parent="3MZKQRo2MggwTNiXM9mT-27">
          <mxGeometry width="110" height="30" relative="1" as="geometry">
            <mxPoint x="190" y="180" as="offset" />
          </mxGeometry>
        </mxCell>
        <mxCell id="3MZKQRo2MggwTNiXM9mT-37" value="" style="shape=flexArrow;endArrow=classic;html=1;rounded=0;width=10;endSize=8.27;endWidth=15;exitX=0.5;exitY=1;exitDx=0;exitDy=0;" edge="1" parent="3MZKQRo2MggwTNiXM9mT-27" source="3MZKQRo2MggwTNiXM9mT-28">
          <mxGeometry width="50" height="50" relative="1" as="geometry">
            <mxPoint x="230" y="120" as="sourcePoint" />
            <mxPoint x="236.66666666666652" y="180" as="targetPoint" />
          </mxGeometry>
        </mxCell>
      </root>
    </mxGraphModel>
  </diagram>
</mxfile>
